<svg xmlns="http://www.w3.org/2000/svg" width="512" height="512" viewBox="0 0 256 256"><path fill="#f2e1d6" d="M212.067,14.61V193.56a5.608,5.608,0,0,1-5.61,5.61h-22.73a32.074,32.074,0,0,0-6.97-19.76c4.63-6.87,4.77-15.23-.11-20.11-3.49-3.49-8.74-4.41-13.94-2.99a12.842,12.842,0,0,0-5.32-7.11c-9.42-5.89-23.5,3.05-25.57,16.53-30.3,0-47.44,15.33-53.98,33.44H50.777a5.608,5.608,0,0,1-5.61-5.61V14.61A5.608,5.608,0,0,1,50.777,9h155.68A5.608,5.608,0,0,1,212.067,14.61Z"/><path fill="#d6c0b4" d="M189.727,199.13v.04h-6a32.074,32.074,0,0,0-6.97-19.76c4.63-6.87,4.77-15.23-.11-20.11-3.49-3.49-8.74-4.41-13.94-2.99a12.842,12.842,0,0,0-5.32-7.11c-9.42-5.89-23.5,3.05-25.57,16.53-30.3,0-47.44,15.33-53.98,33.44h-6.33c7.974-25.011,29.541-37.984,55.62-39.32,6.673-18.994,29.543-24.989,39.06-10.15,15.515-.78,24.827,14.258,17.64,29.39A37.223,37.223,0,0,1,189.727,199.13Z"/><path fill="#fff" d="M200.363,188.2H192.45a2.5,2.5,0,0,1,0-5h5.413V162.311a2.5,2.5,0,1,1,5,0V185.7A2.5,2.5,0,0,1,200.363,188.2Z"/><path fill="#fff" d="M68.667,188.4H58.333a2.5,2.5,0,0,1,0-5H68.667a2.5,2.5,0,0,1,0,5Z"/><path fill="#fff" d="M200.363,131.966a2.5,2.5,0,0,1-2.5-2.5V21.341a2.5,2.5,0,0,1,5,0V129.466A2.5,2.5,0,0,1,200.363,131.966Z"/><path fill="#fc5d3d" d="M192.993,218.927,187.059,236.9A14.714,14.714,0,0,1,173.087,247H84.142A14.714,14.714,0,0,1,70.17,236.9l-5.934-17.973Z"/><path fill="#ffcbc2" d="M173.087,241.318H98.879a2.5,2.5,0,1,1,0-5h74.208a4.025,4.025,0,0,0,3.829-2.768l2.387-7.227a2.5,2.5,0,1,1,4.748,1.569l-2.387,7.226A9.018,9.018,0,0,1,173.087,241.318Zm-84.208,0H84.142a2.5,2.5,0,0,1,0-5h4.737a2.5,2.5,0,0,1,0,5Z"/><path fill="#f0c020" d="M183.728,199.173c.078,7.382-2.188,14.1-3.68,19.746H74.752a52.91,52.91,0,0,1,3.085-19.746c6.541-18.109,23.685-33.446,53.978-33.446,2.075-13.475,16.156-22.417,25.569-16.527a12.784,12.784,0,0,1,5.318,7.114c5.206-1.425,10.457-.5,13.946,2.984,4.881,4.881,4.735,13.239.112,20.117A32.092,32.092,0,0,1,183.728,199.173Z"/><path fill="#f9e5af" d="M87.1,209.572a2.5,2.5,0,0,1-1.812-3.036q.261-1.034.574-2.051a2.5,2.5,0,0,1,4.779,1.473q-.276.894-.5,1.8A2.5,2.5,0,0,1,87.1,209.572Zm3.958-11.3a2.5,2.5,0,0,1-.8-3.444c7.308-11.741,20.6-19.678,37.7-19.827a2.5,2.5,0,1,1,.043,5c-13.716.119-26.225,5.787-33.5,17.47A2.5,2.5,0,0,1,91.06,198.268Z"/><path fill="#f0c020" d="M31.846,212.459c-3.723-1.23-7.568-2.305-9.727-11.6-1.988,8.565-5.174,10.1-9.727,11.6,7.426,2.454,8.547,6.517,9.727,11.6C24.154,215.294,27.52,213.889,31.846,212.459Z"/><path fill="#f0c020" d="M243.608,155.664c-3.723-1.23-7.568-2.3-9.727-11.6-1.988,8.565-5.174,10.1-9.727,11.6,7.426,2.454,8.547,6.517,9.727,11.605C235.916,158.5,239.282,157.094,243.608,155.664Z"/><path fill="#f0c020" d="M239.743,212.4c-3.722-1.23-7.568-2.3-9.726-11.6-1.988,8.565-5.174,10.1-9.727,11.6,7.426,2.454,8.547,6.517,9.727,11.605C232.052,215.238,235.417,213.833,239.743,212.4Z"/><path d="M69.915,77.667a2.5,2.5,0,0,0,2.5,2.5h33.222a2.5,2.5,0,0,0,0-5H72.415A2.5,2.5,0,0,0,69.915,77.667Z"/><path d="M72.415,95.313h33.222a2.5,2.5,0,0,0,0-5H72.415a2.5,2.5,0,0,0,0,5Z"/><path d="M72.415,110.457h33.222a2.5,2.5,0,0,0,0-5H72.415a2.5,2.5,0,0,0,0,5Z"/><path d="M184.818,75.167H122.749a2.5,2.5,0,0,0,0,5h62.069a2.5,2.5,0,0,0,0-5Z"/><path d="M184.818,90.313H122.749a2.5,2.5,0,0,0,0,5h62.069a2.5,2.5,0,0,0,0-5Z"/><path d="M184.818,105.457H122.749a2.5,2.5,0,0,0,0,5h62.069a2.5,2.5,0,0,0,0-5Z"/><path d="M166.58,37.167H90.654a2.5,2.5,0,0,0,0,5H166.58a2.5,2.5,0,0,0,0-5Z"/><circle cx="146.439" cy="247" r="2.5"/><path d="M111.02,168.5a2.537,2.537,0,0,0-3.18-1.55h-.01a2.5,2.5,0,1,0,3.19,1.55Z"/><path d="M206.46,6.5H50.78a8.121,8.121,0,0,0-8.11,8.109v24.83a2.5,2.5,0,1,0,5,0V14.609A3.112,3.112,0,0,1,50.78,11.5H206.46a3.124,3.124,0,0,1,3.109,3.109V193.56a3.125,3.125,0,0,1-3.109,3.11H186.122a34.7,34.7,0,0,0-6.35-17.366c3.522-6.126,4.357-13.915.244-19.839l12.971-12.971,1.476,1.476A2.5,2.5,0,0,0,198,144.435l-6.485-6.487a2.5,2.5,0,0,0-3.535,3.535l1.475,1.475-12.969,12.969a16.725,16.725,0,0,0-12.234-2.507,15.657,15.657,0,0,0-3.536-4.81l9.727-15.547,1.769,1.107a2.5,2.5,0,0,0,2.652-4.238l-7.776-4.866a2.5,2.5,0,0,0-2.652,4.239l1.768,1.106-9.721,15.539c-10.606-4.324-23.586,4.636-26.711,17.3a78.866,78.866,0,0,0-11.87,1.13,2.508,2.508,0,0,0-2.04,2.89,2.534,2.534,0,0,0,2.88,2.04h.02c7.6-1.332,12.048-1.082,27.192-1.082-3.006,7.057-2.114,14.382,2.634,19.13,7.418,7.418,20.347,4.887,28.039-3.715,7.6,12.109,4.087,23.285,1.515,32.776H77.23c.2-16.154,8.02-32.048,23.55-40.85a2.508,2.508,0,0,0,.94-3.409,2.573,2.573,0,0,0-3.41-.94,50.276,50.276,0,0,0-22.185,25.45H50.78a3.113,3.113,0,0,1-3.11-3.11V59.439a2.5,2.5,0,0,0-5,0V193.56a8.122,8.122,0,0,0,8.11,8.11H74.41a55.064,55.064,0,0,0-2.176,14.749H55.5a2.5,2.5,0,1,0,0,5h6.93L67.8,237.68A17.177,17.177,0,0,0,84.14,249.5h52.3a2.5,2.5,0,0,0,0-5H84.14a12.2,12.2,0,0,1-11.6-8.38l-4.85-14.69c20.711,0,121.412-.011,121.847-.011l-4.857,14.7a12.181,12.181,0,0,1-11.59,8.38H156.439a2.5,2.5,0,1,0,0,5H173.09a17.177,17.177,0,0,0,16.34-11.82l5.375-16.261h6.933a2.5,2.5,0,0,0,0-5h-18.42a67.552,67.552,0,0,0,2.846-14.749h20.3a8.121,8.121,0,0,0,8.109-8.11V14.609A8.121,8.121,0,0,0,206.46,6.5ZM159.339,154.825a25.109,25.109,0,0,0-10.56,8.4H134.957C138.927,150.591,153.877,145.123,159.339,154.825Zm-7.218,29c-7.093-7.094-.45-21.877,11.242-25.1h0c4-1.095,8.546-.623,11.515,2.345,4.119,4.122,3.638,11.26-.192,16.954C168.984,186.522,157.776,189.473,152.121,183.823Z"/><circle cx="45.17" cy="49.439" r="2.5"/><path d="M72.415,142.216h48.068a2.5,2.5,0,0,0,0-5H72.415a2.5,2.5,0,0,0,0,5Z"/><path d="M111.87,205.9a2.507,2.507,0,0,0,2.5-2.5v-.46a2.5,2.5,0,1,0-5,0v.46A2.507,2.507,0,0,0,111.87,205.9Z"/><path d="M167.62,207.689v-1.08a2.5,2.5,0,0,0-5,0v1.08a2.5,2.5,0,0,0,5,0Z"/><path d="M132.74,191.38V190.3a2.5,2.5,0,1,0-5,0v1.08a2.5,2.5,0,1,0,5,0Z"/><path d="M165.12,171.5a2.5,2.5,0,0,0-2.5,2.5v1.08a2.5,2.5,0,1,0,5,0V174A2.5,2.5,0,0,0,165.12,171.5Z"/><path d="M32.63,210.085c-3.505-1.154-6.243-1.9-8.076-9.8a2.5,2.5,0,0,0-4.87,0c-1.793,7.719-4.292,8.545-8.076,9.8a2.5,2.5,0,0,0,0,4.747c6.285,2.077,7,5.147,8.075,9.8a2.5,2.5,0,0,0,4.872,0c1.79-7.719,4.426-8.59,8.075-9.8A2.5,2.5,0,0,0,32.63,210.085Zm-10.461,6.57a12.969,12.969,0,0,0-3.914-4.138,12.4,12.4,0,0,0,3.873-4.36,12.756,12.756,0,0,0,3.739,4.325A12.372,12.372,0,0,0,22.169,216.655Z"/><path d="M244.392,153.291c-3.5-1.155-6.243-1.9-8.076-9.8a2.5,2.5,0,0,0-4.87,0c-1.792,7.719-4.292,8.546-8.076,9.8a2.5,2.5,0,0,0,0,4.748c6.285,2.076,7,5.147,8.075,9.8a2.5,2.5,0,0,0,4.872,0c1.79-7.719,4.426-8.59,8.075-9.8A2.5,2.5,0,0,0,244.392,153.291Zm-10.461,6.569a12.98,12.98,0,0,0-3.914-4.138,12.4,12.4,0,0,0,3.873-4.36,12.76,12.76,0,0,0,3.739,4.326A12.358,12.358,0,0,0,233.931,159.86Z"/><path d="M240.528,210.029c-3.5-1.154-6.243-1.9-8.076-9.8a2.5,2.5,0,0,0-4.87,0c-1.793,7.72-4.292,8.546-8.076,9.8a2.5,2.5,0,0,0,0,4.747c6.285,2.077,7,5.147,8.075,9.8a2.5,2.5,0,0,0,4.871,0c1.791-7.719,4.427-8.591,8.076-9.8A2.5,2.5,0,0,0,240.528,210.029Zm-10.461,6.57a13,13,0,0,0-3.914-4.139,12.388,12.388,0,0,0,3.873-4.359,12.756,12.756,0,0,0,3.739,4.325A12.372,12.372,0,0,0,230.067,216.6Z"/></svg>